<svg width="131" height="131" viewBox="0 0 131 131" fill="none" xmlns="http://www.w3.org/2000/svg">
<g clip-path="url(#clip0_805_182)">
<path fill-rule="evenodd" clip-rule="evenodd" d="M53.1526 57.2123C52.2047 57.1549 51.2526 57.1057 50.4485 57.1101C36.1071 57.1133 20.6749 61.0146 8.76311 69.0124C8.33326 69.306 8.19209 69.8825 8.48511 70.3182C8.77813 70.754 9.3447 70.8576 9.77492 70.5633C21.4611 62.8119 36.4797 59.0137 50.4631 59.0136C50.9126 59.006 51.4346 59.0288 51.9579 59.0489C51.4654 60.0987 51.3443 61.1209 51.4492 62.0572C51.6469 63.4689 52.4305 64.7873 53.5856 65.9179C55.2066 67.4936 57.4871 68.6821 59.7945 69.3403C61.5727 69.8283 63.3642 69.971 64.6945 69.6596C65.8025 69.4281 66.6296 68.8994 67.1387 68.1411C67.6712 67.3406 67.8465 66.2211 67.3422 64.7197C66.5372 62.1532 64.4865 60.3875 61.8508 59.1965C59.9261 58.3298 57.7228 57.8059 55.5839 57.4868C56.0949 57.0466 56.6987 56.6 57.3966 56.144C62.8059 52.8104 71.8761 51.8709 81.6728 52.3544C96.577 53.1038 113.182 57.2145 121.246 61.6305C121.656 61.8549 122.272 61.708 122.526 61.25C122.779 60.792 122.575 60.1954 122.165 59.9709C113.897 55.4424 96.9919 51.2299 81.7486 50.4494C71.515 49.9509 62.0117 51.0274 56.4105 54.5468C55.023 55.4437 53.9162 56.3163 53.1526 57.2123ZM54.013 59.1968C53.428 60.0921 53.2159 60.957 53.2956 61.7778C53.4426 62.7989 54.0764 63.7449 54.8807 64.544C56.2672 65.8999 58.2805 66.9288 60.2806 67.4987C61.6708 67.8831 63.0896 68.0545 64.178 67.8585C64.7783 67.7394 65.2593 67.5151 65.5676 67.1194C65.8126 66.6771 65.7888 66.0761 65.585 65.3184C64.8741 63.2252 63.1388 61.856 61.071 60.9262C58.9313 59.9653 56.2964 59.416 54.013 59.1968Z" fill="white"/>
<path fill-rule="evenodd" clip-rule="evenodd" d="M9.80014 70.4738C13.9839 66.9406 17.2351 61.8763 19.2455 56.7999C19.4292 56.3075 19.1993 55.758 18.7587 55.5888C18.2503 55.3811 17.6792 55.6071 17.4959 56.0988C15.5619 60.8765 12.539 65.6905 8.56005 69.0147C8.18665 69.3672 8.12547 69.9603 8.44379 70.3504C8.83064 70.7776 9.42675 70.8263 9.80014 70.4738Z" fill="white"/>
<path fill-rule="evenodd" clip-rule="evenodd" d="M9.64485 70.698C14.5341 68.7856 20.3104 70.0962 25.0477 71.9953C25.4883 72.1646 26.0594 71.9376 26.2431 71.4453C26.4263 70.9536 26.1957 70.4046 25.6869 70.1976C20.5809 68.1601 14.2729 66.8462 8.93323 68.9287C8.4643 69.132 8.24302 69.6926 8.42296 70.1717C8.60253 70.6515 9.1763 70.9007 9.64485 70.698Z" fill="white"/>
</g>
<defs>
<clipPath id="clip0_805_182">
<rect width="96" height="96" fill="white" transform="translate(46.6572 0.139709) rotate(28.9835)"/>
</clipPath>
</defs>
</svg>
