<svg width="605" height="200" viewBox="0 0 605 200" fill="none" xmlns="http://www.w3.org/2000/svg">
<g filter="url(#filter0_d_817_62)">
<mask id="path-1-outside-1_817_62" maskUnits="userSpaceOnUse" x="236.066" y="0" width="125" height="192" fill="black">
<rect fill="white" x="236.066" width="125" height="192"/>
<path d="M284.705 96.0495L351.885 28.7706L332.115 9L245.066 96.0495L332.115 183L351.885 163.229L284.705 96.0495Z"/>
</mask>
<path d="M284.705 96.0495L351.885 28.7706L332.115 9L245.066 96.0495L332.115 183L351.885 163.229L284.705 96.0495Z" fill="#0BAC9B"/>
<path d="M284.705 96.0495L351.885 28.7706L332.115 9L245.066 96.0495L332.115 183L351.885 163.229L284.705 96.0495Z" stroke="white" stroke-width="12" mask="url(#path-1-outside-1_817_62)"/>
</g>
<g filter="url(#filter1_d_817_62)">
<mask id="path-2-outside-2_817_62" maskUnits="userSpaceOnUse" x="353.41" y="0" width="125" height="192" fill="black">
<rect fill="white" x="353.41" width="125" height="192"/>
<path d="M402.05 96.0495L469.23 28.7706L449.46 9L362.41 96.0495L449.46 183L469.23 163.229L402.05 96.0495Z"/>
</mask>
<path d="M402.05 96.0495L469.23 28.7706L449.46 9L362.41 96.0495L449.46 183L469.23 163.229L402.05 96.0495Z" fill="#0BAC9B"/>
<path d="M402.05 96.0495L469.23 28.7706L449.46 9L362.41 96.0495L449.46 183L469.23 163.229L402.05 96.0495Z" stroke="white" stroke-width="12" mask="url(#path-2-outside-2_817_62)"/>
</g>
<g filter="url(#filter2_d_817_62)">
<mask id="path-3-outside-3_817_62" maskUnits="userSpaceOnUse" x="472.23" y="0" width="125" height="192" fill="black">
<rect fill="white" x="472.23" width="125" height="192"/>
<path d="M520.771 96.0495L588.049 28.7706L568.18 9L481.23 96.0495L568.18 183L588.049 163.229L520.771 96.0495Z"/>
</mask>
<path d="M520.771 96.0495L588.049 28.7706L568.18 9L481.23 96.0495L568.18 183L588.049 163.229L520.771 96.0495Z" fill="#0BAC9B"/>
<path d="M520.771 96.0495L588.049 28.7706L568.18 9L481.23 96.0495L568.18 183L588.049 163.229L520.771 96.0495Z" stroke="white" stroke-width="12" mask="url(#path-3-outside-3_817_62)"/>
</g>
<g filter="url(#filter3_d_817_62)">
<mask id="path-4-outside-4_817_62" maskUnits="userSpaceOnUse" x="0" y="0" width="125" height="192" fill="black">
<rect fill="white" width="125" height="192"/>
<path d="M48.6396 96.0495L115.82 28.7706L96.0492 9L9 96.0495L96.0492 183L115.82 163.229L48.6396 96.0495Z"/>
</mask>
<path d="M48.6396 96.0495L115.82 28.7706L96.0492 9L9 96.0495L96.0492 183L115.82 163.229L48.6396 96.0495Z" fill="#0BAC9B"/>
<path d="M48.6396 96.0495L115.82 28.7706L96.0492 9L9 96.0495L96.0492 183L115.82 163.229L48.6396 96.0495Z" stroke="white" stroke-width="12" mask="url(#path-4-outside-4_817_62)"/>
<mask id="path-5-outside-5_817_62" maskUnits="userSpaceOnUse" x="117.345" y="0" width="125" height="192" fill="black">
<rect fill="white" x="117.345" width="125" height="192"/>
<path d="M165.984 96.0495L233.164 28.7706L213.394 9L126.345 96.0495L213.394 183L233.164 163.229L165.984 96.0495Z"/>
</mask>
<path d="M165.984 96.0495L233.164 28.7706L213.394 9L126.345 96.0495L213.394 183L233.164 163.229L165.984 96.0495Z" fill="#0BAC9B"/>
<path d="M165.984 96.0495L233.164 28.7706L213.394 9L126.345 96.0495L213.394 183L233.164 163.229L165.984 96.0495Z" stroke="white" stroke-width="12" mask="url(#path-5-outside-5_817_62)"/>
</g>
<defs>
<filter id="filter0_d_817_62" x="236.578" y="0.514648" width="131.793" height="198.968" filterUnits="userSpaceOnUse" color-interpolation-filters="sRGB">
<feFlood flood-opacity="0" result="BackgroundImageFix"/>
<feColorMatrix in="SourceAlpha" type="matrix" values="0 0 0 0 0 0 0 0 0 0 0 0 0 0 0 0 0 0 127 0" result="hardAlpha"/>
<feOffset dx="8" dy="8"/>
<feComposite in2="SourceGraphic" operator="ligher"/>
<feColorMatrix type="matrix" values="0 0 0 0 1 0 0 0 0 1 0 0 0 0 1 0 0 0 1 0"/>
<feBlend mode="normal" in2="BackgroundImageFix" result="effect1_dropShadow_817_62"/>
<feBlend mode="normal" in="SourceGraphic" in2="effect1_dropShadow_817_62" result="shape"/>
</filter>
<filter id="filter1_d_817_62" x="353.923" y="0.514648" width="131.792" height="198.968" filterUnits="userSpaceOnUse" color-interpolation-filters="sRGB">
<feFlood flood-opacity="0" result="BackgroundImageFix"/>
<feColorMatrix in="SourceAlpha" type="matrix" values="0 0 0 0 0 0 0 0 0 0 0 0 0 0 0 0 0 0 127 0" result="hardAlpha"/>
<feOffset dx="8" dy="8"/>
<feComposite in2="SourceGraphic" operator="ligher"/>
<feColorMatrix type="matrix" values="0 0 0 0 1 0 0 0 0 1 0 0 0 0 1 0 0 0 1 0"/>
<feBlend mode="normal" in2="BackgroundImageFix" result="effect1_dropShadow_817_62"/>
<feBlend mode="normal" in="SourceGraphic" in2="effect1_dropShadow_817_62" result="shape"/>
</filter>
<filter id="filter2_d_817_62" x="472.747" y="0.522827" width="131.802" height="198.952" filterUnits="userSpaceOnUse" color-interpolation-filters="sRGB">
<feFlood flood-opacity="0" result="BackgroundImageFix"/>
<feColorMatrix in="SourceAlpha" type="matrix" values="0 0 0 0 0 0 0 0 0 0 0 0 0 0 0 0 0 0 127 0" result="hardAlpha"/>
<feOffset dx="8" dy="8"/>
<feComposite in2="SourceGraphic" operator="ligher"/>
<feColorMatrix type="matrix" values="0 0 0 0 1 0 0 0 0 1 0 0 0 0 1 0 0 0 1 0"/>
<feBlend mode="normal" in2="BackgroundImageFix" result="effect1_dropShadow_817_62"/>
<feBlend mode="normal" in="SourceGraphic" in2="effect1_dropShadow_817_62" result="shape"/>
</filter>
<filter id="filter3_d_817_62" x="0.512318" y="0.514648" width="249.137" height="198.968" filterUnits="userSpaceOnUse" color-interpolation-filters="sRGB">
<feFlood flood-opacity="0" result="BackgroundImageFix"/>
<feColorMatrix in="SourceAlpha" type="matrix" values="0 0 0 0 0 0 0 0 0 0 0 0 0 0 0 0 0 0 127 0" result="hardAlpha"/>
<feOffset dx="8" dy="8"/>
<feComposite in2="SourceGraphic" operator="ligher"/>
<feColorMatrix type="matrix" values="0 0 0 0 1 0 0 0 0 1 0 0 0 0 1 0 0 0 1 0"/>
<feBlend mode="normal" in2="BackgroundImageFix" result="effect1_dropShadow_817_62"/>
<feBlend mode="normal" in="SourceGraphic" in2="effect1_dropShadow_817_62" result="shape"/>
</filter>
</defs>
</svg>
