<svg width="184" height="74" viewBox="0 0 184 74" fill="none" xmlns="http://www.w3.org/2000/svg">
<path fill-rule="evenodd" clip-rule="evenodd" d="M34.1045 58.985C34.6054 57.3803 35.0289 55.9955 35.2489 55.2624C36.5766 50.7985 41.2197 40.1114 41.9162 31.591C42.4497 25.0907 40.6944 19.8286 34.7032 18.3542C29.2578 17.0142 23.7594 20.3255 18.8883 26.2922C8.40473 39.1339 0.454564 64.1249 0.00247721 72.2951C-0.046397 73.187 0.633766 73.9486 1.52572 73.9975C2.4136 74.0464 3.1752 73.3662 3.22407 72.4743C3.65987 64.634 11.325 40.6612 21.389 28.3327C25.3234 23.5145 29.5347 20.4069 33.9334 21.4903C38.275 22.5574 39.0856 26.6139 38.6987 31.3262C38.0226 39.6185 33.4487 49.9962 32.1536 54.3419C31.3431 57.0666 27.9585 67.371 27.8811 68.3241C27.7834 69.5174 28.6347 69.9165 28.9238 70.0265C29.1478 70.112 30.2922 70.4663 31.005 69.1834C41.179 50.8962 69.4487 29.8763 99.5634 21.4984C129.413 13.1939 161.169 17.3686 178.715 49.5971C179.143 50.3791 180.124 50.6682 180.906 50.2446C181.688 49.8169 181.978 48.8354 181.55 48.0534C163.165 14.2854 129.971 9.68711 98.6999 18.3867C72.3445 25.7179 47.4227 42.5388 34.1045 58.985Z" fill="white"/>
<path fill-rule="evenodd" clip-rule="evenodd" d="M178.994 47.2753C175.471 45.8336 172.009 44.2859 168.372 43.117C158.683 40.0012 147.955 38.816 137.899 40.608C137.02 40.7669 136.437 41.6059 136.592 42.4816C136.751 43.3613 137.59 43.9437 138.465 43.789C148.008 42.0824 158.19 43.235 167.383 46.1919C171.545 47.5319 175.479 49.3769 179.54 50.9775C179.744 51.0549 181.487 51.8044 181.898 51.8614C182.855 51.9999 183.34 51.446 183.532 51.1609C183.694 50.9246 183.833 50.6028 183.845 50.1711C183.853 49.8168 183.711 49.1407 183.328 48.2773C182.11 45.5077 178.343 39.4554 177.83 38.3965C171.944 26.2594 168.507 13.9798 164.564 1.14211C164.299 0.290888 163.395 -0.189761 162.544 0.070902C161.693 0.331565 161.216 1.23582 161.477 2.08704C165.468 15.0876 168.967 27.5179 174.925 39.8016C175.276 40.5307 177.439 44.461 178.994 47.2753Z" fill="white"/>
</svg>
