<svg width="295" height="386" viewBox="0 0 295 386" fill="none" xmlns="http://www.w3.org/2000/svg">
<g filter="url(#filter0_d_817_28)">
<path d="M287 189.025C287 241.2 265.839 288.456 231.586 322.631C197.384 356.806 150.242 377.899 98.1268 378H97.8224C-6.50946 377.848 -91 293.273 -91 189.025C-91 84.7267 -6.50946 0.152113 97.8224 0H98.1268C202.459 0.152113 287 84.7267 287 189.025Z" fill="#0094FF"/>
<path d="M227.349 318.383L227.345 318.387C194.222 351.483 148.584 371.902 98.1152 372H97.8311C-3.19378 371.853 -85 289.96 -85 189.025C-85 88.0407 -3.19502 6.14956 97.8269 6H98.1223C199.146 6.14957 281 88.0428 281 189.025C281 239.544 260.518 285.29 227.349 318.383Z" stroke="white" stroke-width="12"/>
</g>
<defs>
<filter id="filter0_d_817_28" x="-91" y="0" width="386" height="386" filterUnits="userSpaceOnUse" color-interpolation-filters="sRGB">
<feFlood flood-opacity="0" result="BackgroundImageFix"/>
<feColorMatrix in="SourceAlpha" type="matrix" values="0 0 0 0 0 0 0 0 0 0 0 0 0 0 0 0 0 0 127 0" result="hardAlpha"/>
<feOffset dx="8" dy="8"/>
<feComposite in2="SourceGraphic" operator="lighter"/>
<feColorMatrix type="matrix" values="0 0 0 0 1 0 0 0 0 1 0 0 0 0 1 0 0 0 1 0"/>
<feBlend mode="normal" in2="BackgroundImageFix" result="effect1_dropShadow_817_28"/>
<feBlend mode="normal" in="SourceGraphic" in2="effect1_dropShadow_817_28" result="shape"/>
</filter>
</defs>
</svg>
