<svg width="214" height="214" viewBox="0 0 214 214" fill="none" xmlns="http://www.w3.org/2000/svg">
<g filter="url(#filter0_d_817_50)">
<rect width="206" height="206" rx="19.3125" fill="white"/>
<rect x="4.5" y="4.5" width="197" height="197" rx="14.8125" stroke="black" stroke-width="9"/>
</g>
<path d="M177.952 57.5325C172.577 59.9144 166.802 61.5238 160.732 62.2512C166.995 58.5032 171.681 52.6044 173.916 45.6553C168.031 49.1508 161.59 51.6113 154.873 52.9297C150.357 48.1072 144.374 44.9107 137.855 43.8366C131.335 42.7625 124.644 43.8708 118.819 46.9895C112.994 50.1082 108.361 55.0629 105.64 61.0841C102.92 67.1054 102.263 73.8564 103.773 80.2891C91.8483 79.6904 80.1832 76.5911 69.5342 71.1923C58.8853 65.7935 49.4906 58.2159 41.9597 48.9513C39.3847 53.3932 37.9041 58.5432 37.9041 64.028C37.9012 68.9655 39.1171 73.8274 41.4439 78.1823C43.7707 82.5372 47.1365 86.2505 51.2426 88.9926C46.4806 88.8411 41.8237 87.5543 37.6595 85.2395V85.6258C37.659 92.5509 40.0544 99.2628 44.4393 104.623C48.8242 109.983 54.9285 113.661 61.7164 115.032C57.2989 116.228 52.6674 116.404 48.1719 115.547C50.087 121.506 53.8175 126.717 58.8412 130.45C63.8648 134.183 69.9301 136.251 76.1879 136.366C65.5649 144.705 52.4457 149.229 38.9405 149.209C36.5482 149.21 34.1579 149.07 31.782 148.791C45.4905 157.605 61.4482 162.282 77.7458 162.264C132.915 162.264 163.075 116.571 163.075 76.9416C163.075 75.6541 163.043 74.3537 162.985 73.0662C168.851 68.8237 173.915 63.5702 177.939 57.5518L177.952 57.5325V57.5325Z" fill="#00ACEE"/>
<defs>
<filter id="filter0_d_817_50" x="0" y="0" width="214" height="214" filterUnits="userSpaceOnUse" color-interpolation-filters="sRGB">
<feFlood flood-opacity="0" result="BackgroundImageFix"/>
<feColorMatrix in="SourceAlpha" type="matrix" values="0 0 0 0 0 0 0 0 0 0 0 0 0 0 0 0 0 0 127 0" result="hardAlpha"/>
<feOffset dx="8" dy="8"/>
<feComposite in2="SourceGraphic" operator="lighter"/>
<feColorMatrix type="matrix" values="0 0 0 0 0.117647 0 0 0 0 0.105882 0 0 0 0 0.105882 0 0 0 1 0"/>
<feBlend mode="normal" in2="BackgroundImageFix" result="effect1_dropShadow_817_50"/>
<feBlend mode="normal" in="SourceGraphic" in2="effect1_dropShadow_817_50" result="shape"/>
</filter>
</defs>
</svg>
