<svg width="232" height="240" viewBox="0 0 232 240" fill="none" xmlns="http://www.w3.org/2000/svg">
<path opacity="0.918438" d="M176.027 21.3936C191.884 28.3266 212.022 28.3402 222.744 41.9395C233.458 55.5298 230.954 74.8887 231.834 92.1811C232.637 107.984 230.412 123.073 227.662 138.655C224.314 157.622 227.912 180.557 213.905 193.759C200.003 206.863 177.6 203.526 158.51 203.834C141.387 204.111 124.831 201.238 108.707 195.459C92.2578 189.564 75.2313 183.281 63.9329 169.937C52.5248 156.463 49.1413 138.463 45.7684 121.124C42.2895 103.24 37.9992 84.6292 43.9915 67.4262C50.0527 50.0255 64.6634 37.4746 78.9517 25.8596C93.2846 14.2083 108.453 0.882043 126.895 0.0336257C145.04 -0.801116 159.381 14.1158 176.027 21.3936Z" fill="#00FFE5" fill-opacity="0.69"/>
<path d="M89.8444 58.785C90.2417 57.7113 91.2889 57 92.4444 57C93.6 57 94.6472 57.7113 95.0444 58.785L100.136 72.2512L113.75 77.298C114.833 77.7019 115.556 78.7277 115.556 79.875C115.556 81.0223 114.833 82.0481 113.75 82.452L100.136 87.4988L95.0444 100.963C94.6472 102.035 93.6 102.75 92.4444 102.75C91.2889 102.75 90.2417 102.035 89.8444 100.963L84.7528 87.4988L70.8139 82.452C69.7306 82.0481 69.3333 81.0223 69.3333 79.875C69.3333 78.7277 69.7306 77.7019 70.8139 77.298L84.7528 72.2512L89.8444 58.785ZM154.339 62.0254C161.128 55.3251 172.106 55.3251 178.858 62.0254L191.353 74.385C198.106 81.0831 198.106 91.9487 191.353 98.6397L53.625 234.96C46.8722 241.644 35.8872 241.644 29.12 234.96L16.6328 222.594C9.86195 215.91 9.86195 205.044 16.6328 198.325L154.339 62.0254ZM166.617 78.1987L128.664 115.724L137.078 124.052L174.994 86.5159L166.617 78.1987Z" fill="white"/>
<path d="M2.70508 98.8898L23.1111 91.3125L30.7631 71.1146C31.3733 69.5026 32.9297 68.4375 34.6667 68.4375C36.4 68.4375 37.9528 69.5026 38.5667 71.1146L46.2222 91.3125L66.625 98.8898C68.25 99.4975 69.3333 101.034 69.3333 102.75C69.3333 104.466 68.25 106.003 66.625 106.61L46.2222 114.188L38.5667 134.382C37.9528 135.99 36.4 137.062 34.6667 137.062C32.9297 137.062 31.3733 135.99 30.7631 134.382L23.1111 114.188L2.70508 106.61C1.07792 106.003 0 104.466 0 102.75C0 101.034 1.07792 99.4975 2.70508 98.8898ZM129.819 190.39L150.222 182.812L157.878 162.618C158.492 160.688 160.044 159.938 161.778 159.938C163.511 159.938 165.064 160.688 165.678 162.618L173.333 182.812L193.736 190.39C195.361 190.997 196.444 192.534 196.444 194.25C196.444 195.966 195.361 197.503 193.736 198.11L173.333 205.688L165.678 225.882C165.064 227.49 163.511 228.562 161.778 228.562C160.044 228.562 158.492 227.49 157.878 225.882L150.222 205.688L129.819 198.11C127.869 197.503 127.111 195.966 127.111 194.25C127.111 192.534 127.869 190.997 129.819 190.39Z" fill="#FFB035"/>
</svg>
