<svg width="313" height="386" viewBox="0 0 313 386" fill="none" xmlns="http://www.w3.org/2000/svg">
<g filter="url(#filter0_d_813_239)">
<path d="M378 189.025C378 241.2 356.839 288.456 322.586 322.631C288.384 356.806 241.242 377.899 189.127 378H188.822C84.4905 377.848 0 293.273 0 189.025C0 84.7267 84.4905 0.152113 188.822 0H189.127C293.459 0.152113 378 84.7267 378 189.025Z" fill="#EBFF00"/>
<path d="M318.349 318.383L318.345 318.387C285.222 351.483 239.584 371.902 189.115 372H188.831C87.8062 371.853 6 289.96 6 189.025C6 88.0407 87.805 6.14956 188.827 6H189.122C290.146 6.14957 372 88.0428 372 189.025C372 239.544 351.518 285.29 318.349 318.383Z" stroke="white" stroke-width="12"/>
</g>
<defs>
<filter id="filter0_d_813_239" x="0" y="0" width="386" height="386" filterUnits="userSpaceOnUse" color-interpolation-filters="sRGB">
<feFlood flood-opacity="0" result="BackgroundImageFix"/>
<feColorMatrix in="SourceAlpha" type="matrix" values="0 0 0 0 0 0 0 0 0 0 0 0 0 0 0 0 0 0 127 0" result="hardAlpha"/>
<feOffset dx="8" dy="8"/>
<feComposite in2="SourceGraphic" operator="ligher"/>
<feColorMatrix type="matrix" values="0 0 0 0 1 0 0 0 0 1 0 0 0 0 1 0 0 0 1 0"/>
<feBlend mode="normal" in2="BackgroundImageFix" result="effect1_dropShadow_813_239"/>
<feBlend mode="normal" in="SourceGraphic" in2="effect1_dropShadow_813_239" result="shape"/>
</filter>
</defs>
</svg>
